<svg width="214" height="215" viewBox="0 0 214 215" fill="none" xmlns="http://www.w3.org/2000/svg">
<ellipse cx="107" cy="107.5" rx="107" ry="107.5" fill="#F1BC00"/>
<g clip-path="url(#clip0_852_29)">
<path d="M114.655 123.368C115.641 124.382 116.138 125.837 116.138 127.724C116.138 132.336 113.708 134.903 108.846 135.43V120.86C111.731 121.516 113.663 122.351 114.655 123.368ZM152.367 115.877C152.367 142.198 132.056 154 107 154C81.9429 154 61.6333 142.198 61.6333 115.877C61.6333 94.1292 81.5627 76.3457 95.9119 70.2583C90.8551 70.6962 85.7974 71.2764 80.8324 72.2078C79.0593 72.5398 70.4546 73.685 70.8381 76.1609C70.9228 76.7024 69.9361 76.6964 69.8529 76.1609C69.5123 73.965 73.8937 72.935 75.6222 72.4781C80.4862 71.1938 85.5691 70.5042 90.6047 69.9368C90.6303 69.9344 90.657 69.9306 90.6833 69.9275C88.63 69.906 86.5754 69.7998 84.5538 69.5753C82.6992 69.3667 79.8901 69.0528 79.0782 67.3384C78.8381 66.83 79.7906 66.6107 80.0271 67.1112C80.7595 68.656 84.6737 68.776 86.2154 68.8841C88.1256 69.0184 90.0355 69.0691 91.9518 69.0704C93.6519 69.0715 95.3776 68.9409 97.1061 68.7322C88.5741 65.4063 75.4112 58.7055 83.8806 51.3932C95.9106 41.0134 93.0801 51.8292 100.156 55.2742C107.232 58.7198 127.752 39.1799 122.798 50.7811C120.682 55.7445 117.524 61.041 114.609 65.479C115.079 65.5888 115.521 65.7819 115.913 66.0904C116.998 66.9368 117.713 67.9466 116.962 69.1393C116.754 69.4676 116.394 69.6682 115.934 69.7833C117.414 69.8166 118.679 69.5772 119.233 68.852C119.402 68.6298 119.778 68.558 120.01 68.7665C121.936 70.5225 120.365 71.5721 118.266 72.0334C135.449 79.4375 152.367 94.3231 152.367 115.877ZM114.535 70.5463C115.244 70.8078 115.956 71.082 116.668 71.368C116.727 71.3636 116.777 71.3662 116.838 71.3601C117.908 71.2577 120.445 70.9311 119.628 69.7342C118.523 70.5855 116.563 70.7444 114.535 70.5463ZM112.443 68.6877C112.96 68.7747 113.476 68.8456 114.001 68.8757C114.544 68.9077 115.272 68.9962 115.789 68.8114C116.258 67.5331 115.805 66.7155 114.434 66.359C114.305 66.3317 114.186 66.3179 114.063 66.3011C113.51 67.1323 112.965 67.9329 112.443 68.6877ZM122.291 127.399C122.291 124.348 121.354 121.938 119.482 120.169C117.606 118.398 114.061 117.052 108.846 116.126V102.426C112.631 102.878 114.697 104.795 115.034 108.172H121.186C120.452 102.072 116.337 98.7744 108.846 98.2847V94.0913H105.47V98.2847C101.556 98.5929 98.448 99.728 96.1449 101.69C93.841 103.653 92.6894 106.238 92.6894 109.451C92.6894 115.153 96.9499 118.739 105.471 120.21V135.432C100.843 134.762 98.2954 132.157 97.8333 127.617H91.7111C92.3003 134.769 96.8861 138.755 105.471 139.57V143.739H108.849V139.517C113.056 139.317 116.35 138.044 118.726 135.688C121.101 133.341 122.291 130.576 122.291 127.399ZM98.8098 109.042C98.8098 111.077 99.425 112.556 100.657 113.482C101.886 114.41 103.492 115.092 105.47 115.524V102.371C101.03 103.043 98.8098 105.266 98.8098 109.042Z" fill="black"/>
</g>
<defs>
<clipPath id="clip0_852_29">
<rect width="124" height="107" fill="white" transform="translate(45 47)"/>
</clipPath>
</defs>
</svg>
